<?xml version="1.0" encoding="UTF-8" standalone="no"?>
<!-- Created with Digital by H.Neemann -->
<!-- created: Wed Nov 15 23:47:23 BRT 2023 -->

<svg
   xmlns:svg="http://www.w3.org/2000/svg"
   xmlns="http://www.w3.org/2000/svg"
   width="162.15mm"
   height="90.6mm"
   viewBox="411 102 1081 604">
<g stroke-linecap="square">
<path d="M 1040,320 L 1060,320 L 1060,240 L 780,240 L 780,200 L 900,200" stroke="#0000b2" stroke-width="4.0" fill="none"/>
<path d="M 1320,320 L 1380,320 L 1380,360 L 940,360 L 940,340 L 960,340" stroke="#0000b2" stroke-width="4.0" fill="none"/>
<path d="M 600,640 L 800,640 L 900,640" stroke="#0000b2" stroke-width="4.0" fill="none"/>
<path d="M 1320,260 L 1340,260" stroke="#0000b2" stroke-width="4.0" fill="none"/>
<path d="M 680,280 L 680,260 L 700,260" stroke="#0000b2" stroke-width="4.0" fill="none"/>
<path d="M 1320,200 L 1340,200" stroke="#0000b2" stroke-width="4.0" fill="none"/>
<path d="M 1080,520 L 1100,520 L 1100,200 L 1160,200" stroke="#0000b2" stroke-width="4.0" fill="none"/>
<path d="M 800,640 L 800,520 L 820,520" stroke="#0000b2" stroke-width="4.0" fill="none"/>
<path d="M 460,520 L 480,520 L 480,660 L 520,660" stroke="#0000b2" stroke-width="4.0" fill="none"/>
<path d="M 1240,520 L 1260,520 L 1260,480 L 1360,480" stroke="#0000b2" stroke-width="4.0" fill="none"/>
<path d="M 1320,520 L 1360,520" stroke="#0000b2" stroke-width="4.0" fill="none"/>
<path d="M 620,280 L 620,140 L 640,140" stroke="#0000b2" stroke-width="4.0" fill="none"/>
<path d="M 700,140 L 740,140 L 740,220 L 420,220 L 420,260 L 440,260" stroke="#0000b2" stroke-width="4.0" fill="none"/>
<path d="M 1160,480 L 1160,460 L 1360,460" stroke="#0000b2" stroke-width="4.0" fill="none"/>
<path d="M 1080,460 L 1140,460 L 1140,240 L 1160,240" stroke="#0000b2" stroke-width="4.0" fill="none"/>
<path d="M 460,460 L 580,460 L 580,540 L 640,540" stroke="#0000b2" stroke-width="4.0" fill="none"/>
<path d="M 720,460 L 840,460 L 940,460" stroke="#0000b2" stroke-width="4.0" fill="none"/>
<path d="M 840,460 L 840,400 L 860,400" stroke="#0000b2" stroke-width="4.0" fill="none"/>
<path d="M 880,660 L 900,660" stroke="#0000b2" stroke-width="4.0" fill="none"/>
<path d="M 600,280 L 620,280 L 680,280 L 760,280 L 760,160 L 900,160" stroke="#0000b2" stroke-width="4.0" fill="none"/>
<path d="M 480,280 L 540,280" stroke="#0000b2" stroke-width="4.0" fill="none"/>
<path d="M 1320,280 L 1340,280" stroke="#0000b2" stroke-width="4.0" fill="none"/>
<path d="M 1320,220 L 1340,220" stroke="#0000b2" stroke-width="4.0" fill="none"/>
<path d="M 760,480 L 760,540 L 1140,540 L 1140,500 L 1180,500" stroke="#0000b2" stroke-width="4.0" fill="none"/>
<path d="M 560,160 L 640,160" stroke="#0000b2" stroke-width="4.0" fill="none"/>
<path d="M 1080,480 L 1160,480 L 1180,480" stroke="#0000b2" stroke-width="4.0" fill="none"/>
<path d="M 460,480 L 560,480 L 560,560 L 640,560" stroke="#0000b2" stroke-width="4.0" fill="none"/>
<path d="M 720,480 L 760,480 L 820,480" stroke="#0000b2" stroke-width="4.0" fill="none"/>
<path d="M 440,460 L 440,420 L 1080,420 L 1080,180" stroke="#0000b2" stroke-width="4.0" fill="none"/>
<path d="M 860,580 L 860,620 L 900,620" stroke="#0000b2" stroke-width="4.0" fill="none"/>
<path d="M 960,620 L 980,620 L 980,700 L 420,700 L 420,300 L 440,300" stroke="#0000b2" stroke-width="4.0" fill="none"/>
<path d="M 1320,300 L 1340,300" stroke="#0000b2" stroke-width="4.0" fill="none"/>
<path d="M 940,300 L 960,300" stroke="#0000b2" stroke-width="4.0" fill="none"/>
<path d="M 1380,540 L 1380,560 L 1400,560" stroke="#0000b2" stroke-width="4.0" fill="none"/>
<path d="M 840,520 L 840,560 L 860,560" stroke="#0000b2" stroke-width="4.0" fill="none"/>
<path d="M 1160,560 L 1180,560" stroke="#0000b2" stroke-width="4.0" fill="none"/>
<path d="M 1320,240 L 1340,240" stroke="#0000b2" stroke-width="4.0" fill="none"/>
<path d="M 1400,500 L 1440,500 L 1440,580 L 860,580 L 600,580 L 600,460 L 640,460" stroke="#0000b2" stroke-width="4.0" fill="none"/>
<path d="M 460,500 L 640,500" stroke="#0000b2" stroke-width="4.0" fill="none"/>
<path d="M 860,500 L 940,500" stroke="#0000b2" stroke-width="4.0" fill="none"/>
<path d="M 1080,500 L 1120,500 L 1120,220 L 1160,220" stroke="#0000b2" stroke-width="4.0" fill="none"/>
<path d="M 1320,500 L 1360,500" stroke="#0000b2" stroke-width="4.0" fill="none"/>
<path d="M 560,180 L 640,180" stroke="#0000b2" stroke-width="4.0" fill="none"/>
<path d="M 1320,180 L 1340,180" stroke="#0000b2" stroke-width="4.0" fill="none"/>
<path d="M 960,180 L 1080,180 L 1160,180" stroke="#0000b2" stroke-width="4.0" fill="none"/>
<path d="M 520,380 L 760,380" stroke="#0000b2" stroke-width="4.0" fill="none"/>
<path d="M 460,300 L 460,320" stroke="#0000b2" stroke-width="4.0" fill="none"/>
<path d="M 440,460 L 450,460 L 460,460" stroke="#000000" stroke-width="4.0" fill="none"/>
<path d="M 460,480 L 450,480" stroke="#000000" stroke-width="4.0" fill="none"/>
<path d="M 460,500 L 450,500" stroke="#000000" stroke-width="4.0" fill="none"/>
<path d="M 460,520 L 450,520" stroke="#000000" stroke-width="4.0" fill="none"/>
<path d="M 694,644 L 686,636" stroke="#0000b2" stroke-width="2.0" fill="none"/>
<path d="M 854,644 L 846,636" stroke="#0000b2" stroke-width="2.0" fill="none"/>
<path d="M 734,584 L 726,576" stroke="#0000b2" stroke-width="2.0" fill="none"/>
<path d="M 1154,584 L 1146,576" stroke="#0000b2" stroke-width="2.0" fill="none"/>
<path d="M 1334,524 L 1326,516" stroke="#0000b2" stroke-width="2.0" fill="none"/>
<path d="M 714,144 L 706,136" stroke="#0000b2" stroke-width="2.0" fill="none"/>
<path d="M 1254,464 L 1246,456" stroke="#0000b2" stroke-width="2.0" fill="none"/>
<path d="M 614,464 L 606,456" stroke="#0000b2" stroke-width="2.0" fill="none"/>
<path d="M 514,464 L 506,456" stroke="#0000b2" stroke-width="2.0" fill="none"/>
<path d="M 774,464 L 766,456" stroke="#0000b2" stroke-width="2.0" fill="none"/>
<path d="M 894,464 L 886,456" stroke="#0000b2" stroke-width="2.0" fill="none"/>
<path d="M 494,664 L 486,656" stroke="#0000b2" stroke-width="2.0" fill="none"/>
<path d="M 514,284 L 506,276" stroke="#0000b2" stroke-width="2.0" fill="none"/>
<path d="M 654,284 L 646,276" stroke="#0000b2" stroke-width="2.0" fill="none"/>
<path d="M 714,284 L 706,276" stroke="#0000b2" stroke-width="2.0" fill="none"/>
<path d="M 574,224 L 566,216" stroke="#0000b2" stroke-width="2.0" fill="none"/>
<path d="M 954,544 L 946,536" stroke="#0000b2" stroke-width="2.0" fill="none"/>
<path d="M 614,544 L 606,536" stroke="#0000b2" stroke-width="2.0" fill="none"/>
<path d="M 594,164 L 586,156" stroke="#0000b2" stroke-width="2.0" fill="none"/>
<path d="M 834,164 L 826,156" stroke="#0000b2" stroke-width="2.0" fill="none"/>
<path d="M 1114,484 L 1106,476" stroke="#0000b2" stroke-width="2.0" fill="none"/>
<path d="M 734,484 L 726,476" stroke="#0000b2" stroke-width="2.0" fill="none"/>
<path d="M 1314,484 L 1306,476" stroke="#0000b2" stroke-width="2.0" fill="none"/>
<path d="M 794,484 L 786,476" stroke="#0000b2" stroke-width="2.0" fill="none"/>
<path d="M 754,424 L 746,416" stroke="#0000b2" stroke-width="2.0" fill="none"/>
<path d="M 874,624 L 866,616" stroke="#0000b2" stroke-width="2.0" fill="none"/>
<path d="M 594,564 L 586,556" stroke="#0000b2" stroke-width="2.0" fill="none"/>
<path d="M 1414,504 L 1406,496" stroke="#0000b2" stroke-width="2.0" fill="none"/>
<path d="M 554,504 L 546,496" stroke="#0000b2" stroke-width="2.0" fill="none"/>
<path d="M 894,504 L 886,496" stroke="#0000b2" stroke-width="2.0" fill="none"/>
<path d="M 1154,504 L 1146,496" stroke="#0000b2" stroke-width="2.0" fill="none"/>
<path d="M 1334,504 L 1326,496" stroke="#0000b2" stroke-width="2.0" fill="none"/>
<path d="M 1014,184 L 1006,176" stroke="#0000b2" stroke-width="2.0" fill="none"/>
<path d="M 1114,184 L 1106,176" stroke="#0000b2" stroke-width="2.0" fill="none"/>
<path d="M 694,704 L 686,696" stroke="#0000b2" stroke-width="2.0" fill="none"/>
<g>
<text text-anchor="start" x="690.0" y="637.0" fill="#0000b2" style="font-size:12px">24</text>
<circle cx="800.0" cy="640.0" r="4.0" stroke="#0000b2" stroke-width="4.0" fill="#0000b2" />
<text text-anchor="start" x="850.0" y="637.0" fill="#0000b2" style="font-size:12px">24</text>
<text text-anchor="start" x="730.0" y="577.0" fill="#0000b2" style="font-size:12px">24</text>
<circle cx="860.0" cy="580.0" r="4.0" stroke="#0000b2" stroke-width="4.0" fill="#0000b2" />
<text text-anchor="start" x="1150.0" y="577.0" fill="#0000b2" style="font-size:12px">24</text>
<text text-anchor="start" x="1330.0" y="517.0" fill="#0000b2" style="font-size:12px">24</text>
<text text-anchor="start" x="710.0" y="137.0" fill="#0000b2" style="font-size:12px">24</text>
<text text-anchor="start" x="1250.0" y="457.0" fill="#0000b2" style="font-size:12px">24</text>
<text text-anchor="start" x="610.0" y="457.0" fill="#0000b2" style="font-size:12px">24</text>
<text text-anchor="start" x="510.0" y="457.0" fill="#0000b2" style="font-size:12px">5</text>
<text text-anchor="start" x="770.0" y="457.0" fill="#0000b2" style="font-size:12px">24</text>
<circle cx="840.0" cy="460.0" r="4.0" stroke="#0000b2" stroke-width="4.0" fill="#0000b2" />
<text text-anchor="start" x="890.0" y="457.0" fill="#0000b2" style="font-size:12px">24</text>
<text text-anchor="start" x="490.0" y="657.0" fill="#0000b2" style="font-size:12px">25</text>
<circle cx="620.0" cy="280.0" r="4.0" stroke="#0000b2" stroke-width="4.0" fill="#0000b2" />
<text text-anchor="start" x="510.0" y="277.0" fill="#0000b2" style="font-size:12px">24</text>
<text text-anchor="start" x="650.0" y="277.0" fill="#0000b2" style="font-size:12px">24</text>
<circle cx="680.0" cy="280.0" r="4.0" stroke="#0000b2" stroke-width="4.0" fill="#0000b2" />
<text text-anchor="start" x="710.0" y="277.0" fill="#0000b2" style="font-size:12px">24</text>
<text text-anchor="start" x="570.0" y="217.0" fill="#0000b2" style="font-size:12px">24</text>
<text text-anchor="start" x="950.0" y="537.0" fill="#0000b2" style="font-size:12px">24</text>
<text text-anchor="start" x="610.0" y="537.0" fill="#0000b2" style="font-size:12px">5</text>
<text text-anchor="start" x="590.0" y="157.0" fill="#0000b2" style="font-size:12px">24</text>
<text text-anchor="start" x="830.0" y="157.0" fill="#0000b2" style="font-size:12px">24</text>
<text text-anchor="start" x="1110.0" y="477.0" fill="#0000b2" style="font-size:12px">24</text>
<circle cx="1160.0" cy="480.0" r="4.0" stroke="#0000b2" stroke-width="4.0" fill="#0000b2" />
<text text-anchor="start" x="730.0" y="477.0" fill="#0000b2" style="font-size:12px">24</text>
<circle cx="760.0" cy="480.0" r="4.0" stroke="#0000b2" stroke-width="4.0" fill="#0000b2" />
<text text-anchor="start" x="1310.0" y="477.0" fill="#0000b2" style="font-size:12px">24</text>
<text text-anchor="start" x="790.0" y="477.0" fill="#0000b2" style="font-size:12px">24</text>
<text text-anchor="start" x="750.0" y="417.0" fill="#0000b2" style="font-size:12px">32</text>
<text text-anchor="start" x="870.0" y="617.0" fill="#0000b2" style="font-size:12px">24</text>
<text text-anchor="start" x="590.0" y="557.0" fill="#0000b2" style="font-size:12px">5</text>
<text text-anchor="start" x="1410.0" y="497.0" fill="#0000b2" style="font-size:12px">24</text>
<text text-anchor="start" x="550.0" y="497.0" fill="#0000b2" style="font-size:12px">5</text>
<text text-anchor="start" x="890.0" y="497.0" fill="#0000b2" style="font-size:12px">24</text>
<text text-anchor="start" x="1150.0" y="497.0" fill="#0000b2" style="font-size:12px">24</text>
<text text-anchor="start" x="1330.0" y="497.0" fill="#0000b2" style="font-size:12px">24</text>
<text text-anchor="start" x="1010.0" y="177.0" fill="#0000b2" style="font-size:12px">32</text>
<circle cx="1080.0" cy="180.0" r="4.0" stroke="#0000b2" stroke-width="4.0" fill="#0000b2" />
<text text-anchor="start" x="1110.0" y="177.0" fill="#0000b2" style="font-size:12px">32</text>
<text text-anchor="start" x="690.0" y="697.0" fill="#0000b2" style="font-size:12px">24</text>
</g>
<g>
<path d="M 541,270 L 599,270 L 599,310 L 541,310 Z" stroke="#000000" stroke-width="4.0" fill="none"/>
<text text-anchor="middle" x="570.0" y="262.0" fill="#000000" style="font-size:24px">PC</text>
<text text-anchor="start" x="544.0" y="286.75" fill="#808080" style="font-size:18px">D</text>
<path d="M 541,307 L 548,300 L 541,293" stroke="#000000" stroke-width="2.0" fill="none"/>
<text text-anchor="start" x="551.0" y="306.75" fill="#808080" style="font-size:18px">C</text>
<text text-anchor="end" x="596.0" y="286.75" fill="#808080" style="font-size:18px">Q</text>
<text text-anchor="end" x="596.0" y="306.75" fill="#808080" style="font-size:18px"><tspan style="text-decoration:overline;">Q</tspan></text>
<text text-anchor="middle" x="570.0" y="327.5" fill="#808080" style="font-size:18px">D</text>
<circle cx="540.0" cy="280.0" r="2.0" stroke="#0000b2" stroke-width="4.0" fill="#0000b2" />
<circle cx="540.0" cy="300.0" r="2.0" stroke="#0000b2" stroke-width="4.0" fill="#0000b2" />
<circle cx="600.0" cy="280.0" r="2.0" stroke="#b20000" stroke-width="4.0" fill="#b20000" />
<circle cx="600.0" cy="300.0" r="2.0" stroke="#b20000" stroke-width="4.0" fill="#b20000" />
</g>
<g>
<path d="M 641,130 L 699,130 L 699,190 L 641,190 Z" stroke="#000000" stroke-width="4.0" fill="none"/>
<text text-anchor="middle" x="670.0" y="122.0" fill="#000000" style="font-size:24px">PC+4</text>
<text text-anchor="start" x="644.0" y="146.75" fill="#808080" style="font-size:18px">a</text>
<text text-anchor="start" x="644.0" y="166.75" fill="#808080" style="font-size:18px">b</text>
<text text-anchor="start" x="644.0" y="186.75" fill="#808080" style="font-size:18px">c<tspan style="font-size:80%;baseline-shift:sub;">i</tspan></text>
<text text-anchor="end" x="696.0" y="146.75" fill="#808080" style="font-size:18px">s</text>
<text text-anchor="end" x="696.0" y="166.75" fill="#808080" style="font-size:18px">c<tspan style="font-size:80%;baseline-shift:sub;">o</tspan></text>
<text text-anchor="middle" x="670.0" y="207.5" fill="#808080" style="font-size:18px">Soma</text>
<circle cx="640.0" cy="140.0" r="2.0" stroke="#0000b2" stroke-width="4.0" fill="#0000b2" />
<circle cx="640.0" cy="160.0" r="2.0" stroke="#0000b2" stroke-width="4.0" fill="#0000b2" />
<circle cx="640.0" cy="180.0" r="2.0" stroke="#0000b2" stroke-width="4.0" fill="#0000b2" />
<circle cx="700.0" cy="140.0" r="2.0" stroke="#b20000" stroke-width="4.0" fill="#b20000" />
<circle cx="700.0" cy="160.0" r="2.0" stroke="#b20000" stroke-width="4.0" fill="#b20000" />
</g>
<g>
<text text-anchor="end" x="557.0" y="189.0" fill="#000000" style="font-size:24px">0</text>
<circle cx="560.0" cy="180.0" r="2.0" stroke="#b20000" stroke-width="4.0" fill="#b20000" />
</g>
<g>
<text text-anchor="end" x="557.0" y="169.0" fill="#000000" style="font-size:24px">4</text>
<circle cx="560.0" cy="160.0" r="2.0" stroke="#b20000" stroke-width="4.0" fill="#b20000" />
</g>
<g>
<path d="M 901,150 L 959,150 L 959,210 L 901,210 Z" stroke="#000000" stroke-width="4.0" fill="none"/>
<text text-anchor="middle" x="930.0" y="142.0" fill="#000000" style="font-size:24px">MI</text>
<text text-anchor="start" x="904.0" y="166.75" fill="#808080" style="font-size:18px">A</text>
<text text-anchor="start" x="904.0" y="206.75" fill="#808080" style="font-size:18px">sel</text>
<text text-anchor="end" x="956.0" y="186.75" fill="#808080" style="font-size:18px">D</text>
<text text-anchor="middle" x="930.0" y="227.5" fill="#808080" style="font-size:18px">ROM</text>
<circle cx="900.0" cy="160.0" r="2.0" stroke="#0000b2" stroke-width="4.0" fill="#0000b2" />
<circle cx="900.0" cy="200.0" r="2.0" stroke="#0000b2" stroke-width="4.0" fill="#0000b2" />
<circle cx="960.0" cy="180.0" r="2.0" stroke="#b20000" stroke-width="4.0" fill="#b20000" />
</g>
<g>
<path d="M 1161,166 L 1319,166 L 1319,334 L 1161,334 Z" stroke="#cccccc" stroke-width="0.0" fill="#cccccc" fill-opacity="1.0"/>
<path d="M 1161,166 L 1319,166 L 1319,334 L 1161,334 Z" stroke="#000000" stroke-width="4.0" fill="none"/>
<text text-anchor="start" x="1164.0" y="186.75" fill="#808080" style="font-size:18px">instrucao</text>
<text text-anchor="start" x="1164.0" y="206.75" fill="#808080" style="font-size:18px">zero</text>
<text text-anchor="start" x="1164.0" y="226.75" fill="#808080" style="font-size:18px">GT</text>
<text text-anchor="start" x="1164.0" y="246.75" fill="#808080" style="font-size:18px">LT</text>
<text text-anchor="end" x="1316.0" y="186.75" fill="#808080" style="font-size:18px">regWrite</text>
<text text-anchor="end" x="1316.0" y="206.75" fill="#808080" style="font-size:18px">ImmSrc</text>
<text text-anchor="end" x="1316.0" y="226.75" fill="#808080" style="font-size:18px">memWrite</text>
<text text-anchor="end" x="1316.0" y="246.75" fill="#808080" style="font-size:18px">resultSrc</text>
<text text-anchor="end" x="1316.0" y="266.75" fill="#808080" style="font-size:18px">ULASrc</text>
<text text-anchor="end" x="1316.0" y="286.75" fill="#808080" style="font-size:18px">PCSrc</text>
<text text-anchor="end" x="1316.0" y="306.75" fill="#808080" style="font-size:18px">ULAOp</text>
<text text-anchor="end" x="1316.0" y="326.75" fill="#808080" style="font-size:18px">BREAK</text>
<text text-anchor="middle" x="1240.0" y="351.5" fill="#808080" style="font-size:18px">uc</text>
<circle cx="1160.0" cy="180.0" r="2.0" stroke="#0000b2" stroke-width="4.0" fill="#0000b2" />
<circle cx="1160.0" cy="200.0" r="2.0" stroke="#0000b2" stroke-width="4.0" fill="#0000b2" />
<circle cx="1160.0" cy="220.0" r="2.0" stroke="#0000b2" stroke-width="4.0" fill="#0000b2" />
<circle cx="1160.0" cy="240.0" r="2.0" stroke="#0000b2" stroke-width="4.0" fill="#0000b2" />
<circle cx="1320.0" cy="180.0" r="2.0" stroke="#b20000" stroke-width="4.0" fill="#b20000" />
<circle cx="1320.0" cy="200.0" r="2.0" stroke="#b20000" stroke-width="4.0" fill="#b20000" />
<circle cx="1320.0" cy="220.0" r="2.0" stroke="#b20000" stroke-width="4.0" fill="#b20000" />
<circle cx="1320.0" cy="240.0" r="2.0" stroke="#b20000" stroke-width="4.0" fill="#b20000" />
<circle cx="1320.0" cy="260.0" r="2.0" stroke="#b20000" stroke-width="4.0" fill="#b20000" />
<circle cx="1320.0" cy="280.0" r="2.0" stroke="#b20000" stroke-width="4.0" fill="#b20000" />
<circle cx="1320.0" cy="300.0" r="2.0" stroke="#b20000" stroke-width="4.0" fill="#b20000" />
<circle cx="1320.0" cy="320.0" r="2.0" stroke="#b20000" stroke-width="4.0" fill="#b20000" />
</g>
<g>
<path d="M 941,446 L 1079,446 L 1079,534 L 941,534 Z" stroke="#cccccc" stroke-width="0.0" fill="#cccccc" fill-opacity="1.0"/>
<path d="M 941,446 L 1079,446 L 1079,534 L 941,534 Z" stroke="#000000" stroke-width="4.0" fill="none"/>
<text text-anchor="start" x="944.0" y="466.75" fill="#808080" style="font-size:18px">A1</text>
<text text-anchor="start" x="944.0" y="486.75" fill="#808080" style="font-size:18px">ULAOp</text>
<text text-anchor="start" x="944.0" y="506.75" fill="#808080" style="font-size:18px">A2</text>
<text text-anchor="end" x="1076.0" y="466.75" fill="#808080" style="font-size:18px">LT</text>
<text text-anchor="end" x="1076.0" y="486.75" fill="#808080" style="font-size:18px">ULA<tspan style="font-size:80%;baseline-shift:sub;">R</tspan></text>
<text text-anchor="end" x="1076.0" y="506.75" fill="#808080" style="font-size:18px">GT</text>
<text text-anchor="end" x="1076.0" y="526.75" fill="#808080" style="font-size:18px">ZERO</text>
<text text-anchor="middle" x="1010.0" y="551.5" fill="#808080" style="font-size:18px">ULA</text>
<circle cx="940.0" cy="460.0" r="2.0" stroke="#0000b2" stroke-width="4.0" fill="#0000b2" />
<circle cx="940.0" cy="480.0" r="2.0" stroke="#0000b2" stroke-width="4.0" fill="#0000b2" />
<circle cx="940.0" cy="500.0" r="2.0" stroke="#0000b2" stroke-width="4.0" fill="#0000b2" />
<circle cx="1080.0" cy="460.0" r="2.0" stroke="#b20000" stroke-width="4.0" fill="#b20000" />
<circle cx="1080.0" cy="480.0" r="2.0" stroke="#b20000" stroke-width="4.0" fill="#b20000" />
<circle cx="1080.0" cy="500.0" r="2.0" stroke="#b20000" stroke-width="4.0" fill="#b20000" />
<circle cx="1080.0" cy="520.0" r="2.0" stroke="#b20000" stroke-width="4.0" fill="#b20000" />
</g>
<g>
<path d="M 821,476 L 859,485 L 859,515 L 821,524 Z" stroke="#000000" stroke-width="4.0" fill="none"/>
<text text-anchor="start" x="823.0" y="495.5" fill="#808080" style="font-size:18px">0</text>
<circle cx="840.0" cy="520.0" r="2.0" stroke="#0000b2" stroke-width="4.0" fill="#0000b2" />
<circle cx="820.0" cy="480.0" r="2.0" stroke="#0000b2" stroke-width="4.0" fill="#0000b2" />
<circle cx="820.0" cy="520.0" r="2.0" stroke="#0000b2" stroke-width="4.0" fill="#0000b2" />
<circle cx="860.0" cy="500.0" r="2.0" stroke="#b20000" stroke-width="4.0" fill="#b20000" />
</g>
<g>
<path d="M 1340,180 L 1354,188 L 1354,172 Z" stroke="#000000" stroke-width="4.0" fill="none"/>
<text text-anchor="start" x="1359.0" y="186.75" fill="#808080" style="font-size:18px">RegWrite</text>
<circle cx="1340.0" cy="180.0" r="2.0" stroke="#0000b2" stroke-width="4.0" fill="#0000b2" />
</g>
<g>
<path d="M 1340,200 L 1354,208 L 1354,192 Z" stroke="#000000" stroke-width="4.0" fill="none"/>
<text text-anchor="start" x="1359.0" y="206.75" fill="#808080" style="font-size:18px">ImmSrc</text>
<circle cx="1340.0" cy="200.0" r="2.0" stroke="#0000b2" stroke-width="4.0" fill="#0000b2" />
</g>
<g>
<path d="M 1340,220 L 1354,228 L 1354,212 Z" stroke="#000000" stroke-width="4.0" fill="none"/>
<text text-anchor="start" x="1359.0" y="226.75" fill="#808080" style="font-size:18px">memWrite</text>
<circle cx="1340.0" cy="220.0" r="2.0" stroke="#0000b2" stroke-width="4.0" fill="#0000b2" />
</g>
<g>
<path d="M 1340,240 L 1354,248 L 1354,232 Z" stroke="#000000" stroke-width="4.0" fill="none"/>
<text text-anchor="start" x="1359.0" y="246.75" fill="#808080" style="font-size:18px">resultSrc</text>
<circle cx="1340.0" cy="240.0" r="2.0" stroke="#0000b2" stroke-width="4.0" fill="#0000b2" />
</g>
<g>
<path d="M 1340,260 L 1354,268 L 1354,252 Z" stroke="#000000" stroke-width="4.0" fill="none"/>
<text text-anchor="start" x="1359.0" y="266.75" fill="#808080" style="font-size:18px">ULASrc</text>
<circle cx="1340.0" cy="260.0" r="2.0" stroke="#0000b2" stroke-width="4.0" fill="#0000b2" />
</g>
<g>
<path d="M 1340,300 L 1354,308 L 1354,292 Z" stroke="#000000" stroke-width="4.0" fill="none"/>
<text text-anchor="start" x="1359.0" y="306.75" fill="#808080" style="font-size:18px">ULAOp</text>
<circle cx="1340.0" cy="300.0" r="2.0" stroke="#0000b2" stroke-width="4.0" fill="#0000b2" />
</g>
<g>
<path d="M 640,480 L 626,472 L 626,488 Z" stroke="#000000" stroke-width="4.0" fill="none"/>
<text text-anchor="end" x="621.0" y="486.75" fill="#808080" style="font-size:18px">RegWrite</text>
<circle cx="640.0" cy="480.0" r="2.0" stroke="#0000b2" stroke-width="4.0" fill="#0000b2" />
</g>
<g>
<path d="M 860,560 L 874,568 L 874,552 Z" stroke="#000000" stroke-width="4.0" fill="none"/>
<text text-anchor="start" x="879.0" y="566.75" fill="#808080" style="font-size:18px">ULASrc</text>
<circle cx="860.0" cy="560.0" r="2.0" stroke="#0000b2" stroke-width="4.0" fill="#0000b2" />
</g>
<g>
<path d="M 940,480 L 926,472 L 926,488 Z" stroke="#000000" stroke-width="4.0" fill="none"/>
<text text-anchor="end" x="921.0" y="486.75" fill="#808080" style="font-size:18px">ULAOp</text>
<circle cx="940.0" cy="480.0" r="2.0" stroke="#0000b2" stroke-width="4.0" fill="#0000b2" />
</g>
<g>
<path d="M 1180,520 L 1166,512 L 1166,528 Z" stroke="#000000" stroke-width="4.0" fill="none"/>
<text text-anchor="end" x="1161.0" y="526.75" fill="#808080" style="font-size:18px">memWrite</text>
<circle cx="1180.0" cy="520.0" r="2.0" stroke="#0000b2" stroke-width="4.0" fill="#0000b2" />
</g>
<g>
<path d="M 760,380 L 774,388 L 774,372 Z" stroke="#000000" stroke-width="4.0" fill="none"/>
<text text-anchor="start" x="779.0" y="386.75" fill="#808080" style="font-size:18px">CLK</text>
<circle cx="760.0" cy="380.0" r="2.0" stroke="#0000b2" stroke-width="4.0" fill="#0000b2" />
</g>
<g>
<path d="M 540,300 L 526,292 L 526,308 Z" stroke="#000000" stroke-width="4.0" fill="none"/>
<text text-anchor="end" x="521.0" y="306.75" fill="#808080" style="font-size:18px">CLK</text>
<circle cx="540.0" cy="300.0" r="2.0" stroke="#0000b2" stroke-width="4.0" fill="#0000b2" />
</g>
<g>
<path d="M 1180,540 L 1166,532 L 1166,548 Z" stroke="#000000" stroke-width="4.0" fill="none"/>
<text text-anchor="end" x="1161.0" y="546.75" fill="#808080" style="font-size:18px">CLK</text>
<circle cx="1180.0" cy="540.0" r="2.0" stroke="#0000b2" stroke-width="4.0" fill="#0000b2" />
</g>
<g>
<path d="M 1361,456 L 1399,465 L 1399,535 L 1361,544 Z" stroke="#000000" stroke-width="4.0" fill="none"/>
<text text-anchor="start" x="1363.0" y="475.5" fill="#808080" style="font-size:18px">0</text>
<circle cx="1380.0" cy="540.0" r="2.0" stroke="#0000b2" stroke-width="4.0" fill="#0000b2" />
<circle cx="1360.0" cy="460.0" r="2.0" stroke="#0000b2" stroke-width="4.0" fill="#0000b2" />
<circle cx="1360.0" cy="480.0" r="2.0" stroke="#0000b2" stroke-width="4.0" fill="#0000b2" />
<circle cx="1360.0" cy="500.0" r="2.0" stroke="#0000b2" stroke-width="4.0" fill="#0000b2" />
<circle cx="1360.0" cy="520.0" r="2.0" stroke="#0000b2" stroke-width="4.0" fill="#0000b2" />
<circle cx="1400.0" cy="500.0" r="2.0" stroke="#b20000" stroke-width="4.0" fill="#b20000" />
</g>
<g>
<path d="M 1320,500 L 1306,492 L 1306,508 Z" stroke="#000000" stroke-width="4.0" fill="none"/>
<text text-anchor="end" x="1301.0" y="506.75" fill="#808080" style="font-size:18px">RA</text>
<circle cx="1320.0" cy="500.0" r="2.0" stroke="#0000b2" stroke-width="4.0" fill="#0000b2" />
</g>
<g>
<path d="M 1400,560 L 1414,568 L 1414,552 Z" stroke="#000000" stroke-width="4.0" fill="none"/>
<text text-anchor="start" x="1419.0" y="566.75" fill="#808080" style="font-size:18px">resultSrc</text>
<circle cx="1400.0" cy="560.0" r="2.0" stroke="#0000b2" stroke-width="4.0" fill="#0000b2" />
</g>
<g>
<path d="M 441,256 L 479,265 L 479,295 L 441,304 Z" stroke="#000000" stroke-width="4.0" fill="none"/>
<text text-anchor="start" x="443.0" y="275.5" fill="#808080" style="font-size:18px">0</text>
<circle cx="460.0" cy="300.0" r="2.0" stroke="#0000b2" stroke-width="4.0" fill="#0000b2" />
<circle cx="440.0" cy="260.0" r="2.0" stroke="#0000b2" stroke-width="4.0" fill="#0000b2" />
<circle cx="440.0" cy="300.0" r="2.0" stroke="#0000b2" stroke-width="4.0" fill="#0000b2" />
<circle cx="480.0" cy="280.0" r="2.0" stroke="#b20000" stroke-width="4.0" fill="#b20000" />
</g>
<g>
<path d="M 460,320 L 474,328 L 474,312 Z" stroke="#000000" stroke-width="4.0" fill="none"/>
<text text-anchor="start" x="479.0" y="326.75" fill="#808080" style="font-size:18px">PCSrc</text>
<circle cx="460.0" cy="320.0" r="2.0" stroke="#0000b2" stroke-width="4.0" fill="#0000b2" />
</g>
<g>
<text text-anchor="end" x="438.0" y="457.0" fill="#808080" style="font-size:12px">0-31</text>
<text text-anchor="start" x="462.0" y="457.0" fill="#808080" style="font-size:12px">15-19</text>
<text text-anchor="start" x="462.0" y="477.0" fill="#808080" style="font-size:12px">20-24</text>
<text text-anchor="start" x="462.0" y="497.0" fill="#808080" style="font-size:12px">7-11</text>
<text text-anchor="start" x="462.0" y="517.0" fill="#808080" style="font-size:12px">7-31</text>
<path d="M 448,458 L 452,458 L 452,522 L 448,522 Z" stroke="#000000" stroke-width="4.0" fill="#000000" fill-opacity="1.0"/>
<circle cx="440.0" cy="460.0" r="2.0" stroke="#0000b2" stroke-width="4.0" fill="#0000b2" />
<circle cx="460.0" cy="460.0" r="2.0" stroke="#b20000" stroke-width="4.0" fill="#b20000" />
<circle cx="460.0" cy="480.0" r="2.0" stroke="#b20000" stroke-width="4.0" fill="#b20000" />
<circle cx="460.0" cy="500.0" r="2.0" stroke="#b20000" stroke-width="4.0" fill="#b20000" />
<circle cx="460.0" cy="520.0" r="2.0" stroke="#b20000" stroke-width="4.0" fill="#b20000" />
</g>
<g>
<path d="M 521,606 L 599,606 L 599,674 L 521,674 Z" stroke="#cccccc" stroke-width="0.0" fill="#cccccc" fill-opacity="1.0"/>
<path d="M 521,606 L 599,606 L 599,674 L 521,674 Z" stroke="#000000" stroke-width="4.0" fill="none"/>
<text text-anchor="start" x="524.0" y="626.75" fill="#808080" style="font-size:18px">ImmSrc</text>
<text text-anchor="start" x="524.0" y="666.75" fill="#808080" style="font-size:18px">Imm</text>
<text text-anchor="end" x="596.0" y="646.75" fill="#808080" style="font-size:18px">ImmR</text>
<text text-anchor="middle" x="560.0" y="691.5" fill="#808080" style="font-size:18px">Extensor</text>
<circle cx="520.0" cy="620.0" r="2.0" stroke="#0000b2" stroke-width="4.0" fill="#0000b2" />
<circle cx="520.0" cy="660.0" r="2.0" stroke="#0000b2" stroke-width="4.0" fill="#0000b2" />
<circle cx="600.0" cy="640.0" r="2.0" stroke="#b20000" stroke-width="4.0" fill="#b20000" />
</g>
<g>
<path d="M 520,620 L 506,612 L 506,628 Z" stroke="#000000" stroke-width="4.0" fill="none"/>
<text text-anchor="end" x="501.0" y="626.75" fill="#808080" style="font-size:18px">ImmSrc</text>
<circle cx="520.0" cy="620.0" r="2.0" stroke="#0000b2" stroke-width="4.0" fill="#0000b2" />
</g>
<g>
<path d="M 1181,470 L 1239,470 L 1239,570 L 1181,570 Z" stroke="#000000" stroke-width="4.0" fill="none"/>
<text text-anchor="start" x="1184.0" y="486.75" fill="#808080" style="font-size:18px">A</text>
<text text-anchor="start" x="1184.0" y="506.75" fill="#808080" style="font-size:18px">Din</text>
<text text-anchor="start" x="1184.0" y="526.75" fill="#808080" style="font-size:18px">str</text>
<path d="M 1181,547 L 1188,540 L 1181,533" stroke="#000000" stroke-width="2.0" fill="none"/>
<text text-anchor="start" x="1191.0" y="546.75" fill="#808080" style="font-size:18px">C</text>
<text text-anchor="start" x="1184.0" y="566.75" fill="#808080" style="font-size:18px">ld</text>
<text text-anchor="end" x="1236.0" y="526.75" fill="#808080" style="font-size:18px">D</text>
<text text-anchor="middle" x="1210.0" y="587.5" fill="#808080" style="font-size:18px">RAM</text>
<circle cx="1180.0" cy="480.0" r="2.0" stroke="#0000b2" stroke-width="4.0" fill="#0000b2" />
<circle cx="1180.0" cy="500.0" r="2.0" stroke="#0000b2" stroke-width="4.0" fill="#0000b2" />
<circle cx="1180.0" cy="520.0" r="2.0" stroke="#0000b2" stroke-width="4.0" fill="#0000b2" />
<circle cx="1180.0" cy="540.0" r="2.0" stroke="#0000b2" stroke-width="4.0" fill="#0000b2" />
<circle cx="1180.0" cy="560.0" r="2.0" stroke="#0000b2" stroke-width="4.0" fill="#0000b2" />
<circle cx="1240.0" cy="520.0" r="2.0" stroke="#b20000" stroke-width="4.0" fill="#b20000" />
</g>
<g>
<text text-anchor="end" x="1157.0" y="569.0" fill="#000000" style="font-size:24px">1</text>
<circle cx="1160.0" cy="560.0" r="2.0" stroke="#b20000" stroke-width="4.0" fill="#b20000" />
</g>
<g>
<path d="M 990,350 L 961,350 L 961,290 L 990,290 C 1000,290 1020,300 1019,320 C 1019,340 1000,350 990,350 Z" stroke="#000000" stroke-width="4.0" fill="none"/>
<circle cx="1030.0" cy="320.0" r="9.0" stroke="#000000" stroke-width="4.0" fill="none" />
<circle cx="960.0" cy="300.0" r="2.0" stroke="#0000b2" stroke-width="4.0" fill="#0000b2" />
<circle cx="960.0" cy="340.0" r="2.0" stroke="#0000b2" stroke-width="4.0" fill="#0000b2" />
<circle cx="1040.0" cy="320.0" r="2.0" stroke="#b20000" stroke-width="4.0" fill="#b20000" />
</g>
<g>
<text text-anchor="end" x="937.0" y="309.0" fill="#000000" style="font-size:24px">1</text>
<circle cx="940.0" cy="300.0" r="2.0" stroke="#b20000" stroke-width="4.0" fill="#b20000" />
</g>
<g>
<path d="M 1340,280 L 1354,288 L 1354,272 Z" stroke="#000000" stroke-width="4.0" fill="none"/>
<text text-anchor="start" x="1359.0" y="286.75" fill="#808080" style="font-size:18px">PCSrc</text>
<circle cx="1340.0" cy="280.0" r="2.0" stroke="#0000b2" stroke-width="4.0" fill="#0000b2" />
</g>
<g>
<path d="M 641,450 L 719,450 L 719,570 L 641,570 Z" stroke="#000000" stroke-width="4.0" fill="none"/>
<text text-anchor="start" x="644.0" y="466.75" fill="#808080" style="font-size:18px">Din</text>
<text text-anchor="start" x="644.0" y="486.75" fill="#808080" style="font-size:18px">we</text>
<text text-anchor="start" x="644.0" y="506.75" fill="#808080" style="font-size:18px">Rw</text>
<path d="M 641,527 L 648,520 L 641,513" stroke="#000000" stroke-width="2.0" fill="none"/>
<text text-anchor="start" x="651.0" y="526.75" fill="#808080" style="font-size:18px">C</text>
<text text-anchor="start" x="644.0" y="546.75" fill="#808080" style="font-size:18px">Ra</text>
<text text-anchor="start" x="644.0" y="566.75" fill="#808080" style="font-size:18px">Rb</text>
<text text-anchor="end" x="716.0" y="466.75" fill="#808080" style="font-size:18px">Da</text>
<text text-anchor="end" x="716.0" y="486.75" fill="#808080" style="font-size:18px">Db</text>
<text text-anchor="middle" x="680.0" y="587.5" fill="#808080" style="font-size:18px">Registrador</text>
<circle cx="640.0" cy="460.0" r="2.0" stroke="#0000b2" stroke-width="4.0" fill="#0000b2" />
<circle cx="640.0" cy="480.0" r="2.0" stroke="#0000b2" stroke-width="4.0" fill="#0000b2" />
<circle cx="640.0" cy="500.0" r="2.0" stroke="#0000b2" stroke-width="4.0" fill="#0000b2" />
<circle cx="640.0" cy="520.0" r="2.0" stroke="#0000b2" stroke-width="4.0" fill="#0000b2" />
<circle cx="640.0" cy="540.0" r="2.0" stroke="#0000b2" stroke-width="4.0" fill="#0000b2" />
<circle cx="640.0" cy="560.0" r="2.0" stroke="#0000b2" stroke-width="4.0" fill="#0000b2" />
<circle cx="720.0" cy="460.0" r="2.0" stroke="#b20000" stroke-width="4.0" fill="#b20000" />
<circle cx="720.0" cy="480.0" r="2.0" stroke="#b20000" stroke-width="4.0" fill="#b20000" />
</g>
<g>
<path d="M 640,520 L 626,512 L 626,528 Z" stroke="#000000" stroke-width="4.0" fill="none"/>
<text text-anchor="end" x="621.0" y="526.75" fill="#808080" style="font-size:18px">CLK</text>
<circle cx="640.0" cy="520.0" r="2.0" stroke="#0000b2" stroke-width="4.0" fill="#0000b2" />
</g>
<g>
<path d="M 901,610 L 959,610 L 959,670 L 901,670 Z" stroke="#000000" stroke-width="4.0" fill="none"/>
<text text-anchor="start" x="904.0" y="626.75" fill="#808080" style="font-size:18px">a</text>
<text text-anchor="start" x="904.0" y="646.75" fill="#808080" style="font-size:18px">b</text>
<text text-anchor="start" x="904.0" y="666.75" fill="#808080" style="font-size:18px">c<tspan style="font-size:80%;baseline-shift:sub;">i</tspan></text>
<text text-anchor="end" x="956.0" y="626.75" fill="#808080" style="font-size:18px">s</text>
<text text-anchor="end" x="956.0" y="646.75" fill="#808080" style="font-size:18px">c<tspan style="font-size:80%;baseline-shift:sub;">o</tspan></text>
<text text-anchor="middle" x="930.0" y="687.5" fill="#808080" style="font-size:18px">Soma</text>
<circle cx="900.0" cy="620.0" r="2.0" stroke="#0000b2" stroke-width="4.0" fill="#0000b2" />
<circle cx="900.0" cy="640.0" r="2.0" stroke="#0000b2" stroke-width="4.0" fill="#0000b2" />
<circle cx="900.0" cy="660.0" r="2.0" stroke="#0000b2" stroke-width="4.0" fill="#0000b2" />
<circle cx="960.0" cy="620.0" r="2.0" stroke="#b20000" stroke-width="4.0" fill="#b20000" />
<circle cx="960.0" cy="640.0" r="2.0" stroke="#b20000" stroke-width="4.0" fill="#b20000" />
</g>
<g>
<text text-anchor="end" x="877.0" y="669.0" fill="#000000" style="font-size:24px">0</text>
<circle cx="880.0" cy="660.0" r="2.0" stroke="#b20000" stroke-width="4.0" fill="#b20000" />
</g>
<g>
<path d="M 860,400 L 874,408 L 874,392 Z" stroke="#000000" stroke-width="4.0" fill="none"/>
<text text-anchor="start" x="879.0" y="406.75" fill="#808080" style="font-size:18px">RS1</text>
<circle cx="860.0" cy="400.0" r="2.0" stroke="#0000b2" stroke-width="4.0" fill="#0000b2" />
</g>
<g>
<path d="M 1320,520 L 1306,512 L 1306,528 Z" stroke="#000000" stroke-width="4.0" fill="none"/>
<text text-anchor="end" x="1301.0" y="526.75" fill="#808080" style="font-size:18px">RS1</text>
<circle cx="1320.0" cy="520.0" r="2.0" stroke="#0000b2" stroke-width="4.0" fill="#0000b2" />
</g>
<g>
<path d="M 700,260 L 714,268 L 714,252 Z" stroke="#000000" stroke-width="4.0" fill="none"/>
<text text-anchor="start" x="719.0" y="266.75" fill="#808080" style="font-size:18px">RA</text>
<circle cx="700.0" cy="260.0" r="2.0" stroke="#0000b2" stroke-width="4.0" fill="#0000b2" />
</g>
<g>
<path d="M 489,365 L 519,365 L 519,395 L 489,395 Z" stroke="#000000" stroke-width="4.0" fill="none"/>
<text text-anchor="end" x="475.0" y="389.0" fill="#000000" style="font-size:24px"><tspan style="font-style:italic;">CLK</tspan></text>
<path d="M 495,385 L 500,385 L 500,375 L 505,375 L 505,385 L 510,385 L 510,375 L 515,375" stroke="#000000" stroke-width="2.0" fill="none"/>
<circle cx="520.0" cy="380.0" r="2.0" stroke="#b20000" stroke-width="4.0" fill="#b20000" />
</g>
</g>
</svg>